# xmcd CD database file
# 
# Track frame offsets:
# 	150
# 	11121
# 	37956
# 	62771
# 	83623
# 	95022
# 	106042
# 	115307
# 	135974
# 	170800
# 	184669
# 	201770
# 	215831
# 	240710
# 
# Disc length: 3292 seconds
# 
# Submitted via: Nero 5.5.3.2
# 
# Revision: 0
# Processed by: cddbd v1.4PL0 Copyright (c) Steve Scherf et al.
#
DISCID=bd0cda0e
DTITLE=Divers - British Blues
DYEAR=1900
DGENRE=
TTITLE0=Boom Boom (The Yardbirds)
TTITLE1=Tears Came Rollin' Down (John Mayall)
TTITLE2=One Woman Love (Peter Green)
TTITLE3=House Of The Rising Sun (Eric Burdon)
TTITLE4=Got To Hurry (The Yardbirds)
TTITLE5=Snake Drive (Eric Clapton)
TTITLE6=L. A. Breakdown (Jimmy Page)
TTITLE7=The Last Time (John Mayall)
TTITLE8=A Fool No More (Peter Green)
TTITLE9=Jeff's Blues (The Yardbirds)
TTITLE10=Cold Blooded Woman (The Savoy Brown Blues Band)
TTITLE11=Like Jimmy Reed Again (The Yardbirds)
TTITLE12=Last Train To San Antone (Peter Green)
TTITLE13=Choker (Eric Clapton and Jimmy Page)
EXTD=
EXTT0=
EXTT1=
EXTT2=
EXTT3=
EXTT4=
EXTT5=
EXTT6=
EXTT7=
EXTT8=
EXTT9=
EXTT10=
EXTT11=
EXTT12=
EXTT13=
PLAYORDER=
